<svg version="1.1" class="clearos-svg clearfoundation app-vendor-avantech app-free app-category-server app-sub-category-file" viewBox="0 0 400 400" preserveAspectRatio="xMinYMin" xmlns="http://www.w3.org/2000/svg" xmlns:xlink= "http://www.w3.org/1999/xlink">
<g
     id="Layer_7"
     transform="translate(0,1.3329999)"
     display="none"><g
       id="g4"
       display="inline"><path
         id="path6"
         d="M81.984,71.004h33.076l42.445,165.935c5.829,23.278,10.082,44.35,12.758,63.213    c3.279-22.418,8.137-44.35,14.579-65.787l47.737-163.36h32.802l50.611,165.089c5.947,18.916,10.974,40.27,15.065,64.061    c2.355-17.392,6.816-38.589,13.387-63.578l42.769-165.571h33.076l-71.85,268.657h-30.874l-53.407-180.144    c-2.361-7.982-5.326-17.987-8.897-30.021c-3.565-12.034-5.424-19.282-5.537-21.74c-2.692,16.171-6.974,33.876-12.851,53.108    l-52.494,178.801h-30.834L81.984,71.004z" /></g></g><g
     id="Layer_3"
     transform="translate(0,1.3329999)"
     display="none"><g
       id="g9"
       display="inline"><path
         id="path11"
         d="M150.803,339.665V71.004h35.279l146.442,224.558h1.455c-0.247-3.429-0.792-14.086-1.634-31.971    c-0.603-13.966-0.91-24.811-0.91-32.519c0-2.205,0-4.163,0-5.868V71.02h28.854v268.657h-35.284L178.182,114.186h-1.471    c1.958,26.463,2.939,50.718,2.939,72.771v152.708H150.803z" /></g></g><g
     id="Layer_4"
     transform="translate(0,1.3329999)"
     display="none"><g
       id="g14"
       display="inline"><path
         id="path16"
         d="M170.766,333.886v-29.961c11.024,4.66,23.029,8.348,36.019,11.037c12.984,2.694,25.847,4.05,38.593,4.05    c20.862,0,36.57-3.952,47.123-11.874c10.559-7.918,15.837-18.916,15.837-33.047c0-9.324-1.871-16.953-5.613-22.913    c-3.747-5.953-10.008-11.448-18.782-16.474c-8.778-5.026-22.12-10.742-40.039-17.121c-25.037-8.958-42.857-19.574-53.452-31.845    c-10.598-12.266-15.897-28.276-15.897-48.037c0-20.724,7.752-37.221,23.263-49.481c15.51-12.261,36.021-18.392,61.547-18.392    c26.635,0,51.132,4.9,73.489,14.7l-9.626,27.221c-22.147-9.329-43.68-13.989-64.598-13.989c-16.57,0-29.523,3.563-38.848,10.676    c-9.323,7.118-13.986,16.995-13.986,29.637c0,9.324,1.716,16.963,5.152,22.918c3.434,5.953,9.234,11.411,17.397,16.381    c8.161,4.971,20.649,10.46,37.458,16.474c28.229,10.065,47.579,20.863,58.055,32.397c10.475,11.539,15.714,26.511,15.714,44.91    c0,23.556-8.553,41.927-25.658,55.101c-17.104,13.173-40.321,19.773-69.645,19.773    C212.413,346.036,187.916,341.985,170.766,333.886L170.766,333.886z" /></g></g><g
     id="Layer_5"
     transform="translate(0,1.3329999)"
     display="none"><g
       id="g19"
       display="inline"><path
         id="path21"
         d="M142.218,71.009h33.077l61.742,173.833c7.105,19.969,12.739,39.391,16.908,58.258    c4.41-19.85,10.157-39.631,17.271-59.357L332.59,71.006h33.623l-96.844,268.659h-30.861L142.218,71.009z" /></g></g><g
     id="Layer_6"
     transform="translate(0,1.3329999)"
     display="none"><g
       id="g24"
       display="inline"><path
         id="path26"
         d="M154.708,208.841c0-27.668,5.116-51.908,15.355-72.721c10.24-20.811,25.124-36.85,44.653-48.113    c19.528-11.26,42.532-16.895,68.989-16.895c28.177,0,52.8,5.145,73.868,15.437l-13.224,26.816    c-20.339-9.547-40.676-14.321-61.016-14.321c-29.531,0-52.84,9.826-69.918,29.471c-17.09,19.645-25.634,46.542-25.634,80.698    c0,35.143,8.237,62.273,24.716,81.429c16.476,19.155,39.968,28.731,70.473,28.731c18.745,0,40.121-3.365,64.129-10.095v27.481    c-18.621,7.031-41.592,10.545-68.91,10.545c-39.582,0-70.045-12.014-91.421-36.037    C165.395,287.237,154.708,253.093,154.708,208.841z" /></g></g><path
     id="path28"
     fill="#AA0707"
     d="M91.666,184.647" /><path
     id="path30"
     fill="#AA0707"
     d="M123.245,247.805" /><path
     id="path32"
     fill="#AA0707"
     d="M91.666,184.647" /><path
     id="path34"
     fill="#AA0707"
     d="M123.245,247.805" /><circle
     id="circle10"
     r="180.7339"
     cy="200.77966"
     cx="200.30508"
     style="fill:#686868;fill-opacity:1" /><g
     id="g12"
     transform="matrix(3.078942,0,0,3.078942,19.571186,20.045759)"><circle
       id="circle14"
       r="43.700001"
       cy="58.5"
       cx="58.700001"
       stroke-miterlimit="10"
       style="fill:none;stroke:#ffffff;stroke-width:6;stroke-miterlimit:10" /><g
       id="g16"><path
         id="path18"
         d="m 94.7,47.8 c 4.7,1.6 9.8,-0.9 11.4,-5.6 1.6,-4.7 -0.9,-9.8 -5.6,-11.4 -4.7,-1.6 -9.8,0.9 -11.4,5.6 -1.6,4.7 0.9,9.8 5.6,11.4 z"
         style="fill:#ffffff" /><line
         id="line20"
         y2="64.400002"
         x2="67.5"
         y1="39.400002"
         x1="97.599998"
         stroke-miterlimit="10"
         style="fill:none;stroke:#ffffff;stroke-width:6;stroke-miterlimit:10" /></g><g
       id="g22"><path
         id="path24"
         d="m 77.6,91 c -0.4,4.9 3.2,9.3 8.2,9.8 5,0.4 9.3,-3.2 9.8,-8.2 C 96,87.7 92.4,83.3 87.4,82.8 82.4,82.4 78,86 77.6,91 Z"
         style="fill:#ffffff" /><line
         id="line26"
         y2="64.400002"
         x2="67.5"
         y1="91.800003"
         x1="86.5"
         stroke-miterlimit="10"
         style="fill:none;stroke:#ffffff;stroke-width:6;stroke-miterlimit:10" /></g><path
       id="path28-2"
       d="m 60,69.3 c 2.7,4.2 8.3,5.4 12.4,2.7 4.2,-2.7 5.4,-8.3 2.7,-12.4 -2.7,-4.2 -8.3,-5.4 -12.4,-2.7 -4.2,2.6 -5.4,8.2 -2.7,12.4 z"
       style="fill:#ffffff" /><g
       id="g30"><path
         id="path32-2"
         d="m 21.2,61.4 c -4.3,-2.5 -9.8,-1.1 -12.3,3.1 -2.5,4.3 -1.1,9.8 3.1,12.3 4.3,2.5 9.8,1.1 12.3,-3.1 2.5,-4.2 1.1,-9.7 -3.1,-12.3 z"
         style="fill:#ffffff" /><line
         id="line34"
         y2="64.400002"
         x2="67.5"
         y1="69.099998"
         x1="16.6"
         stroke-miterlimit="10"
         style="fill:none;stroke:#ffffff;stroke-width:6;stroke-miterlimit:10" /></g></g>
</svg>
